<svg width="24" height="24" viewBox="0 0 24 24" fill="none" xmlns="http://www.w3.org/2000/svg">
<path d="M12 22C10.6167 22 9.31667 21.7374 8.1 21.212C6.88333 20.6867 5.825 19.9701 4.925 19.062C4.025 18.154 3.31267 17.0917 2.788 15.875C2.26333 14.6584 2.00067 13.3667 2 12C2 9.38338 2.86667 7.13338 4.6 5.25005C6.33333 3.36672 8.46667 2.30005 11 2.05005V5.05005C9.28333 5.28338 7.854 6.05438 6.712 7.36305C5.57 8.67172 4.99933 10.2174 5 12C5 13.9334 5.68333 15.5834 7.05 16.95C8.41667 18.3167 10.0667 19 12 19C13.1 19 14.1293 18.7667 15.088 18.3C16.0467 17.8334 16.8507 17.2 17.5 16.4L20.1 17.9C19.2 19.15 18.0417 20.146 16.625 20.8881C15.2083 21.6301 13.6667 22.0007 12 22ZM21.15 16.05L18.55 14.55C18.7 14.15 18.8123 13.7377 18.887 13.313C18.9617 12.8884 18.9993 12.4507 19 12C19 10.2167 18.429 8.67105 17.287 7.36305C16.145 6.05505 14.716 5.28405 13 5.05005V2.05005C15.5333 2.30005 17.6667 3.36672 19.4 5.25005C21.1333 7.13338 22 9.38338 22 12C22 12.7334 21.9333 13.4417 21.8 14.125C21.6667 14.8084 21.45 15.45 21.15 16.05Z" fill="#333333"/>
</svg>
