<svg width="24" height="24" viewBox="0 0 24 24" fill="none" xmlns="http://www.w3.org/2000/svg">
<path d="M5.3745 1.56755C5.50275 1.62601 5.61194 1.71942 5.68954 1.83708C5.76714 1.95475 5.81002 2.09189 5.81325 2.2328C5.83425 3.1628 6.16575 3.75005 6.55575 4.3553L6.66375 4.5203C7.03125 5.07755 7.50075 5.79005 7.50075 6.75005C7.50128 7.18346 7.40766 7.6118 7.22637 8.00547C7.04507 8.39913 6.78043 8.74872 6.45075 9.03005C6.717 9.3053 6.912 9.6278 7.0545 9.9593C7.43475 10.8406 7.50075 11.9108 7.50075 12.7546C7.50075 14.1376 7.28475 16.4356 6.8895 18.3968C6.69225 19.3741 6.44325 20.3093 6.135 21.0173C5.98275 21.3683 5.7975 21.7066 5.565 21.9691C5.337 22.2271 4.98225 22.5001 4.503 22.5001C4.023 22.5001 3.66825 22.2271 3.44025 21.9691C3.2085 21.7066 3.02325 21.3691 2.87025 21.0173C2.562 20.3101 2.3115 19.3748 2.11425 18.3968C1.71825 16.4363 1.50075 14.1376 1.50075 12.7546C1.50075 11.9101 1.56825 10.8398 1.94925 9.9578C2.09175 9.6278 2.28675 9.30605 2.553 9.03155C2.22296 8.75001 1.95791 8.40024 1.77612 8.00636C1.59433 7.61248 1.50013 7.18386 1.5 6.75005C1.5 6.0488 1.5885 5.30855 2.05725 4.45505C2.511 3.6278 3.29475 2.7428 4.58325 1.67255C4.69181 1.58249 4.82356 1.52486 4.96339 1.50629C5.10322 1.48771 5.2462 1.50895 5.3745 1.56755ZM3.37275 5.17505C3.063 5.7398 3.00075 6.2078 3.00075 6.7493C3.00075 7.14713 3.15879 7.52866 3.44009 7.80996C3.72139 8.09127 4.10293 8.2493 4.50075 8.2493C4.89857 8.2493 5.28011 8.09127 5.56141 7.80996C5.84271 7.52866 6.00075 7.14713 6.00075 6.7493C6.00075 6.2558 5.77875 5.91305 5.36925 5.2808L5.2965 5.1683C5.037 4.7678 4.75275 4.2998 4.557 3.7073C3.95775 4.2938 3.5955 4.77005 3.37275 5.17505ZM3.32625 10.5526C3.07425 11.1368 3 11.9438 3 12.7553C3 14.0303 3.2055 16.2286 3.5835 18.1013C3.774 19.0403 3.999 19.8556 4.24425 20.4188C4.34025 20.6386 4.428 20.7946 4.50225 20.8988C4.6037 20.7479 4.68963 20.587 4.75875 20.4188C5.004 19.8563 5.229 19.0411 5.41875 18.1013C5.79525 16.2286 6 14.0303 6 12.7553C6 11.9423 5.92725 11.1353 5.67675 10.5541C5.556 10.2743 5.409 10.0816 5.241 9.95855C5.0805 9.84155 4.854 9.7508 4.50225 9.7508C4.1505 9.7508 3.92325 9.8408 3.762 9.9593C3.594 10.0831 3.44625 10.2751 3.3255 10.5548M8.238 5.0123C8.98086 4.65752 9.79674 4.48241 10.6198 4.5011C11.4428 4.51979 12.2499 4.73177 12.9759 5.11991C13.7018 5.50805 14.3264 6.06148 14.799 6.7355C15.2717 7.40953 15.5792 8.18526 15.6968 9.00005H13.1257C12.2308 9.00005 11.3724 9.35553 10.7395 9.9883C10.1066 10.6211 9.75095 11.4793 9.75075 12.3743V14.9468C9.33595 14.887 8.92981 14.7777 8.541 14.6213C8.49956 15.1356 8.4473 15.649 8.38425 16.1611C8.82824 16.3071 9.2862 16.4066 9.75075 16.4581V18.3751C9.75075 19.2702 10.1063 20.1286 10.7393 20.7615C11.3722 21.3945 12.2306 21.7501 13.1257 21.7501H19.1257C20.0209 21.7501 20.8793 21.3945 21.5122 20.7615C22.1452 20.1286 22.5007 19.2702 22.5007 18.3751V12.3751C22.5007 11.4799 22.1452 10.6215 21.5122 9.98857C20.8793 9.35563 20.0209 9.00005 19.1257 9.00005H17.2095C17.0889 7.9194 16.709 6.88387 16.1022 5.98158C15.4954 5.0793 14.6796 4.33697 13.7242 3.81777C12.7688 3.29857 11.7021 3.01787 10.6149 2.99955C9.52764 2.98123 8.4521 3.22584 7.47975 3.71255L7.5 3.74405L7.602 3.8978C7.779 4.16255 8.0295 4.53905 8.2395 5.01005M19.125 10.5001C19.6223 10.5001 20.0992 10.6976 20.4508 11.0492C20.8025 11.4009 21 11.8778 21 12.3751V18.3751C21 18.8723 20.8025 19.3492 20.4508 19.7009C20.0992 20.0525 19.6223 20.2501 19.125 20.2501H13.125C12.6277 20.2501 12.1508 20.0525 11.7992 19.7009C11.4475 19.3492 11.25 18.8723 11.25 18.3751V16.4588C12.7716 16.2882 14.1902 15.6056 15.2729 14.5229C16.3556 13.4402 17.0382 12.0217 17.2087 10.5001H19.125ZM11.25 14.9476V12.3751C11.25 11.8778 11.4475 11.4009 11.7992 11.0492C12.1508 10.6976 12.6277 10.5001 13.125 10.5001H15.6975C15.5358 11.6222 15.0152 12.6619 14.2135 13.4635C13.4118 14.2652 12.3722 14.7858 11.25 14.9476Z" fill="black"/>
</svg>
