<svg width="24" height="24" viewBox="0 0 24 24" fill="none" xmlns="http://www.w3.org/2000/svg">
<path d="M17.085 12C20.313 9.9525 22.5 6.018 22.5 1.5C22.5 0.992 22.473 0.492 22.419 0H1.58248C1.52767 0.498109 1.50062 0.998884 1.50148 1.5C1.50148 6.018 3.68699 9.9525 6.91498 12C3.68699 14.0475 1.50148 17.982 1.50148 22.5C1.50148 23.008 1.52848 23.508 1.58248 24H22.419C22.473 23.508 22.5 23.008 22.5 22.5C22.5 17.982 20.313 14.0475 17.085 12ZM3.74998 22.5C3.74998 18.1185 5.62949 14.4045 8.99998 13.179V10.821C5.62949 9.5955 3.74998 5.88 3.74998 1.5H20.25C20.25 5.8815 18.3705 9.5955 15 10.821V13.179C18.3705 14.4045 20.25 18.12 20.25 22.5H3.74998ZM14.523 15.693C12.843 14.7405 12.7515 13.5045 12.75 12.7545V11.2485C12.75 10.4985 12.8385 9.258 14.526 8.304C15.429 7.7805 16.209 6.984 16.8 5.9985H7.19999C7.79248 6.984 8.57398 7.7805 9.47698 8.3055C11.157 9.258 11.2485 10.494 11.25 11.244V12.75C11.25 13.5 11.1615 14.7405 9.47398 15.6945C7.77148 16.683 6.50398 18.6405 6.11998 21H17.8785C17.4945 18.639 16.2255 16.6815 14.5215 15.693H14.523Z" fill="#02131D"/>
</svg>
