<svg width="24" height="24" viewBox="0 0 24 24" fill="none" xmlns="http://www.w3.org/2000/svg">
<path d="M14.25 18H17.25V21H14.25V18ZM19.5 18H22.5V21H19.5V18ZM14.25 12.75H17.25V15.75H14.25V12.75ZM19.5 12.75H22.5V15.75H19.5V12.75Z" fill="black"/>
<path d="M12.75 18H3V7.5H21V11.25H22.5V7.5C22.5 7.10218 22.342 6.72064 22.0607 6.43934C21.7794 6.15804 21.3978 6 21 6H16.5V3C16.5 2.60218 16.342 2.22064 16.0607 1.93934C15.7794 1.65804 15.3978 1.5 15 1.5H9C8.60218 1.5 8.22064 1.65804 7.93934 1.93934C7.65804 2.22064 7.5 2.60218 7.5 3V6H3C2.60218 6 2.22064 6.15804 1.93934 6.43934C1.65804 6.72064 1.5 7.10218 1.5 7.5V18C1.5 18.3978 1.65804 18.7794 1.93934 19.0607C2.22064 19.342 2.60218 19.5 3 19.5H12.75V18ZM9 3H15V6H9V3Z" fill="black"/>
</svg>
