<svg width="24" height="24" viewBox="0 0 24 24" fill="none" xmlns="http://www.w3.org/2000/svg">
<path d="M20.25 14.25C21.4905 14.25 22.5 13.2405 22.5 12C22.5 10.7595 21.4905 9.75 20.25 9.75C19.7862 9.75138 19.3341 9.89631 18.956 10.1649C18.5778 10.4335 18.2921 10.8125 18.138 11.25H13.8105L19.2855 5.775C19.5795 5.91525 19.9035 6 20.25 6C21.4905 6 22.5 4.9905 22.5 3.75C22.5 2.5095 21.4905 1.5 20.25 1.5C19.0095 1.5 18 2.5095 18 3.75C18 4.0965 18.0855 4.4205 18.225 4.71375L12 10.9395V6C12 5.1735 12.6727 4.5 13.5 4.5H15V3H13.5C12.6 3 11.8005 3.40725 11.25 4.0365C10.971 3.71273 10.6258 3.45264 10.2376 3.27382C9.84943 3.095 9.42738 3.00162 9 3H8.25C4.5285 3 1.5 6.02775 1.5 9.75V14.25C1.5 17.9722 4.5285 21 8.25 21H9C9.9 21 10.6995 20.5935 11.25 19.9635C11.8005 20.5935 12.6 21 13.5 21H15V19.5H13.5C12.6727 19.5 12 18.8272 12 18V13.0605L18.225 19.2863C18.0847 19.5795 18 19.9035 18 20.25C18 21.4912 19.0095 22.5 20.25 22.5C21.4905 22.5 22.5 21.4912 22.5 20.25C22.5 19.0088 21.4905 18 20.25 18C19.9159 18.0018 19.5864 18.0789 19.2863 18.2257L13.8105 12.7507H18.138C18.2922 13.1881 18.578 13.567 18.9562 13.8354C19.3343 14.1039 19.7863 14.2487 20.25 14.25ZM20.25 11.25C20.4489 11.25 20.6397 11.329 20.7803 11.4697C20.921 11.6103 21 11.8011 21 12C21 12.1989 20.921 12.3897 20.7803 12.5303C20.6397 12.671 20.4489 12.75 20.25 12.75C20.0511 12.75 19.8603 12.671 19.7197 12.5303C19.579 12.3897 19.5 12.1989 19.5 12C19.5 11.8011 19.579 11.6103 19.7197 11.4697C19.8603 11.329 20.0511 11.25 20.25 11.25ZM20.25 3C20.4431 3.00864 20.6254 3.09143 20.759 3.23114C20.8926 3.37084 20.9672 3.5567 20.9672 3.75C20.9672 3.9433 20.8926 4.12916 20.759 4.26886C20.6254 4.40857 20.4431 4.49136 20.25 4.5C20.0511 4.5 19.8603 4.42098 19.7197 4.28033C19.579 4.13968 19.5 3.94891 19.5 3.75C19.5 3.55109 19.579 3.36032 19.7197 3.21967C19.8603 3.07902 20.0511 3 20.25 3ZM10.5 9H9V10.5H10.5V13.5H9C7.7595 13.5 6.75 14.5095 6.75 15.75V17.25H8.25V15.75C8.25 15.5511 8.32902 15.3603 8.46967 15.2197C8.61032 15.079 8.80109 15 9 15H10.5V18C10.5 18.8272 9.82725 19.5 9 19.5H8.25C5.61 19.5 3.426 17.5403 3.06 15H4.5V13.5H3V10.5H5.25C6.4905 10.5 7.5 9.4905 7.5 8.25V6.75H6V8.25C6 8.44891 5.92098 8.63968 5.78033 8.78033C5.63968 8.92098 5.44891 9 5.25 9H3.06C3.426 6.45975 5.61 4.5 8.25 4.5H9C9.82725 4.5 10.5 5.1735 10.5 6V9ZM21 20.25C20.9914 20.4431 20.9086 20.6254 20.7689 20.759C20.6292 20.8926 20.4433 20.9672 20.25 20.9672C20.0567 20.9672 19.8708 20.8926 19.7311 20.759C19.5914 20.6254 19.5086 20.4431 19.5 20.25C19.5 19.8368 19.8368 19.5 20.25 19.5C20.6632 19.5 21 19.8368 21 20.25Z" fill="white"/>
</svg>
